<svg xmlns="http://www.w3.org/2000/svg" width="2000" height="2000">
  <path d="M810.5 1621.657c-3.3.153-16.575.758-29.5 1.346-62.658 2.846-100.82 5.358-183 12.044-51.574 4.195-148.777 13.854-182.445 18.129l-8.945 1.136 5.555 5.17c17.856 16.621 71.905 58.301 98.835 76.217 70.408 46.843 153.137 85.799 231 108.775 29.932 8.832 57.265 15.867 79.747 20.525l18.446 3.821-.713-4.16c-.391-2.288-.9-58.048-1.131-123.91l-.418-119.75-10.716.189c-5.893.104-13.415.314-16.715.468m351.442 110.956c-.044 84.428-.376 114.832-1.354 123.887-.712 6.6-1.249 12.064-1.192 12.141.412.561 37.698-7.671 56.775-12.534 123.944-31.593 235.746-86.906 335.226-165.846 21.318-16.917 43.336-36.261 41.274-36.261-.373 0-9.789-1.109-20.925-2.464-105.21-12.802-285.98-26.82-388.496-30.124l-21.25-.685-.058 111.886" fill="#1d6d00" fill-rule="evenodd"/>
  <path d="M804.5 1318.105c-26.081 1.042-89.352 4.565-116 6.458-115.027 8.175-167.596 13.075-263 24.517-53.995 6.475-156.302 20.782-199.898 27.954-10.394 1.71-19.942 2.846-21.219 2.526-2.249-.564-2.203-.338 1.472 7.179 36.479 74.628 83.408 144.347 137.155 203.761 14.714 16.265 52.332 54.306 59.189 59.855l4.699 3.802 27.301-3.069c135.265-15.209 271.927-25.771 384.051-29.682l19.75-.689V1317l-6.75.153c-3.712.084-15.75.512-26.75.952m357.5 150.758v151.864l21.25.685c83.243 2.683 229.536 13.171 329.75 23.641 21.175 2.212 47.871 5.16 59.325 6.55 19.903 2.417 20.943 2.452 23.5.794 4.368-2.833 49.764-48.755 63.275-64.009 53.024-59.862 97.692-126.16 132.511-196.674l6.525-13.214-3.818-.28c-2.1-.153-13.718-1.825-25.818-3.715-93.952-14.673-212.469-29.593-290.5-36.57a314367.56 314367.56 0 0 0-83-7.41c-72.785-6.487-189.396-13.468-225.75-13.516L1162 1317v151.863" fill="#1d9400" fill-rule="evenodd"/>
  <path d="M602 1065.545c-79.265 6.441-96.049 8.004-151 14.06-105.502 11.627-207.958 26.396-317.5 45.767l-7 1.238.242 3.945c.375 6.126 7.86 47.463 11.786 65.093 9.702 43.575 26.005 95.237 43.154 136.753 14.435 34.946 19.472 45.712 21.906 46.821 1.731.789 7.682.163 24.598-2.588 47.663-7.75 141.935-20.916 197.314-27.556 95.485-11.449 149.951-16.522 263.5-24.544 37.793-2.669 131.104-7.454 146.75-7.524l2.25-.01-.044-25.75c-.031-18.364-.412-26.754-1.326-29.25-1.573-4.293-137.509-195.21-142.224-199.75-3.06-2.945-3.917-3.238-9.141-3.127-3.171.068-40.64 2.958-83.265 6.422m704.766-4.55c-.953.597-4.986 5.68-8.962 11.296-10.44 14.744-119.821 167.429-127.246 177.62-3.441 4.724-6.775 10.119-7.407 11.988-.751 2.216-1.151 12.397-1.151 29.25V1317l7.25.009c36.354.048 152.965 7.029 225.75 13.516 21.175 1.887 58.525 5.221 83 7.41 24.475 2.188 66.1 6.476 92.5 9.528 45.368 5.244 161.416 21.149 201.276 27.586 20.15 3.254 25.455 3.582 27.037 1.676 2.749-3.312 23.29-52.821 32.637-78.661 12.484-34.515 25.455-80.168 32.551-114.564 5.496-26.644 10.026-52.875 9.253-53.577-2.067-1.877-139.82-24.412-203.754-33.332-93.296-13.017-192.477-23.834-285.5-31.137-71.619-5.623-75.059-5.822-77.234-4.459" fill="#1dce00" fill-rule="evenodd"/>
  <path d="M963.5 117.67c-89.1 4.34-165.518 18.523-246 45.656-62.097 20.935-113.524 44.831-174.292 80.986-25.1 14.934-33.998 21.264-31.411 22.344 3.864 1.614 17.862 13.271 25.765 21.457 15.116 15.658 15.367 16.008 105.916 147.887 28.511 41.525 52.78 76.552 53.93 77.837l2.092 2.338.676-4.338c.372-2.385.714-7.712.76-11.837.177-15.631 6.098-45.684 13.612-69.092 31.948-99.522 113.559-175.354 215.712-200.437 24.708-6.067 39.838-7.789 69.24-7.88 27.798-.086 37.139.826 61.961 6.053 33.186 6.989 69.721 21.82 98.827 40.119 42.513 26.728 81.626 69.288 105.222 114.495 19.571 37.495 30.62 76.242 33.574 117.742.607 8.525 1.398 16.267 1.759 17.205.475 1.23 19.135-25.146 67.157-94.922 36.575-53.145 70.208-101.837 74.74-108.205 9.481-13.32 27.032-32.467 39.01-42.555 4.537-3.821 8.245-7.19 8.239-7.485-.025-1.233-49.307-30.897-68.593-41.288-118.188-63.68-243.125-98.583-378.396-105.71-17.455-.919-63.787-1.135-79.5-.37M271.826 499.75C210.877 588.522 166.793 687.451 141.597 792c-22.663 94.037-29.926 192.317-21.136 286 2.523 26.895 4.074 40.865 5.118 46.112l.519 2.612 13.201-2.361c96.177-17.201 205.167-32.914 307.201-44.29 51.215-5.71 87.255-9.031 164.942-15.2 73.212-5.814 78.114-6.091 80.777-4.562l2.836 1.627-2.395-3.219c-1.316-1.77-63.505-88.944-138.196-193.719-74.691-104.775-163.276-228.975-196.857-276-57.582-80.636-70.699-99.565-72.136-104.092-.333-1.049-.952-1.908-1.375-1.908-.423 0-5.944 7.538-12.27 16.75m1439.019-4.5c-3.413 5.087-21.359 30.4-39.879 56.25-18.52 25.85-89.907 125.525-158.639 221.5-68.732 95.975-143.18 199.925-165.441 231l-40.475 56.5 10.045.162c13.201.214 116.853 8.473 155.044 12.355 64.601 6.567 142.923 15.891 198 23.573 38.95 5.432 142.87 21.883 175.164 27.729l29.165 5.28 1.094-7.55c6.177-42.596 9.452-102.776 8.005-147.066-.898-27.472-5.345-77.406-9.485-106.483-9.572-67.245-31.779-146.172-59.921-212.973-17.153-40.716-37.468-79.99-62.344-120.527-15.152-24.693-31.678-49-33.313-49-.447 0-3.606 4.163-7.02 9.25M1085.5 809.124c-33.308 9.759-51.705 12.388-86 12.29-33.794-.097-49.145-2.233-81.979-11.408-9.853-2.753-18.281-5.006-18.73-5.006-1.106 0 18.36 29.066 62.318 93.049 33.759 49.138 40.214 58.029 41.277 56.862 2.621-2.878 96.841-141.155 101.977-149.661 1.125-1.862-.242-1.582-18.863 3.874" fill="#7d7d7d" fill-rule="evenodd"/>
  <path d="M980.5 267.022c-33.565 3.795-54.752 8.897-79.5 19.146-19.593 8.113-43.065 22.041-60.513 35.906-16.429 13.056-37.819 35.625-49.262 51.978-48.342 69.083-59.919 157.127-31.077 236.348 9.061 24.888 24.342 51.776 41.544 73.1 10.315 12.786 31.098 33 43.308 42.12 32.695 24.422 71.322 41.282 109.5 47.795 20.886 3.563 40.795 4.816 58.369 3.675 37.256-2.42 68.302-10.243 97.631-24.602 51.823-25.371 91.332-63.885 116.421-113.488 14.647-28.957 23.424-58.198 27.166-90.5 1.498-12.931 1.469-43.211-.052-56-6.73-56.555-30.264-106.492-69.343-147.143-21.338-22.196-44.984-39.52-72.167-52.871-23.74-11.66-48.531-19.187-77.521-23.536-15.409-2.312-42.604-3.274-54.504-1.928m-572.25 29.981c-38.738 5.428-70.53 32.788-82.271 70.801-9.8 31.727-4.947 68.322 12.868 97.046 2.774 4.472 42.564 60.673 88.422 124.891C473.128 653.958 591.349 819.675 689.982 958c98.633 138.325 183.65 257.435 188.926 264.689 5.275 7.254 10.829 15.547 12.342 18.43l2.75 5.24.008 295.57c.006 192.501.361 298.709 1.019 304.571 1.554 13.836 4.653 25.035 9.963 36 21.258 43.904 74.533 67.322 124.185 54.588 28.991-7.434 51.805-26.15 65.323-53.588 5.689-11.546 8.012-19.059 9.742-31.5.694-4.988 1.247-108.199 1.652-308.164l.608-300.665 4.075-5.835c2.241-3.21 23.435-32.836 47.098-65.836 180.516-251.744 496.997-693.961 502.799-702.558 11.154-16.526 18.297-35.308 20.638-54.263 1.625-13.151.461-33.171-2.639-45.394-8.206-32.361-34.344-59.302-66.605-68.651-10.491-3.04-29.837-5.048-39.866-4.139-25.858 2.346-47.088 11.82-64.834 28.933-9.466 9.128-17.738 20.033-39.879 52.572-9.918 14.575-66.352 96.735-125.409 182.578A568188.079 568188.079 0 0 0 1118 886.299c-64.075 93.303-116.725 169.641-117 169.64-.275-.001-7.7-10.668-16.5-23.703s-24.348-35.858-34.551-50.718C849.208 834.801 647.397 541.205 521.357 358c-13.782-20.033-21.664-29.558-30.872-37.308-13.318-11.21-27.619-18.131-44.813-21.689-10.943-2.264-28.747-3.216-37.422-2m476.25 62.059c-8.813 3.121-18.9 10.264-25.09 17.768-27.121 32.881-34.213 100.572-15.333 146.357 6.874 16.67 18.975 32.816 29.731 39.668 30.249 19.272 64.42-1.054 79.609-47.355 19.775-60.278 1.572-135.52-37.312-154.222-6.483-3.118-8.587-3.623-16.517-3.957-7.399-.312-10.203.011-15.088 1.741m202.298-.131c-3.137 1.003-7.637 2.958-10 4.345-17.962 10.541-33.823 38.797-39.419 70.224-2.492 13.997-2.477 44.155.03 58 3.379 18.663 9.264 35.606 16.76 48.258 4.223 7.126 15.561 19.225 21.653 23.106 10.919 6.956 25.348 9.034 36.378 5.239 20.354-7.002 38.181-31.218 46.252-62.826 6.613-25.898 6.161-63.132-1.07-88.088-6.969-24.054-19.742-43.795-34.442-53.227-10.529-6.757-24.614-8.717-36.142-5.031" fill="#4a4a4a" fill-rule="evenodd"/>
  <path d="M911.945 1.532c-72.83 6.918-148.392 21.876-212.16 42C566.127 85.71 444.345 154.18 338.186 246.834c-19.698 17.192-68.858 65.982-85.812 85.166C157.9 438.898 91.266 554.62 47.673 687.5 25.076 756.379 12.73 814.638 4.491 891.267L0 933.034v66.423c0 50.69.36 70.759 1.518 84.733 16.684 201.212 93.765 392.466 221.388 549.31 29.74 36.549 81.371 90.153 115.33 119.737 121.919 106.213 262.35 179.762 417.764 218.8 46.493 11.679 80.573 17.571 136 23.513l41.5 4.45h133.161l38.419-4.026c54.446-5.705 91.469-12.094 139.42-24.06 221.832-55.353 418.811-185.839 556.149-368.414 80.455-106.955 140.565-233.166 171.734-360.586 11.41-46.645 18.485-87.765 23.214-134.914 1.958-19.525 3.975-36.281 4.481-37.236 1.12-2.11 1.267-143.095.149-142.404-.426.263-2.277-14.448-4.115-32.691-3.586-35.6-5.195-47.247-10.726-77.669-23.58-129.698-73.954-255.641-147.193-368-119.3-183.023-299.088-323.564-506.193-395.691-78.927-27.488-157.19-44.522-237.824-51.765-27.294-2.451-30.877-2.54-98.5-2.422-48.664.085-74.331.517-83.731 1.41M953.5 118.116c-109.574 5.61-221.218 32.987-320.365 78.561-35.418 16.28-52.453 25.32-91.135 48.362-25.454 15.162-33.11 20.662-30.203 21.697.713.254 4.763 3.049 9 6.211 10.213 7.623 24.767 22.881 35.342 37.053 8.086 10.837 50.909 72.743 109.641 158.5 27.196 39.709 33.098 47.955 33.815 47.239.236-.237.861-7.138 1.388-15.335 4.087-63.617 31.258-127.878 74.738-176.764 48.46-54.484 111.832-88.251 186.279-99.257 18.068-2.671 60.22-2.501 78.013.314 56.279 8.906 105.629 30.076 146.606 62.89 13.094 10.485 35.766 33.244 46.735 46.913 38.953 48.54 61.336 105.359 65.788 167 .636 8.8 1.43 16.537 1.765 17.194.336.657 29.946-41.415 65.807-93.5 35.858-52.082 69.672-101.016 75.141-108.743 10.446-14.758 28.358-34.37 41.036-44.931 3.91-3.257 7.109-6.173 7.109-6.481 0-.652-23.512-15.307-43-26.803-135.314-79.821-291.964-121.925-450.5-121.082-14.85.079-34.2.512-43 .962m26.5 148.9c-25.399 2.68-43.832 6.534-63.5 13.278C854.836 301.436 802.219 347.019 772.551 405c-28.981 56.639-35.846 123.151-19.039 184.473a258.238 258.238 0 0 0 48.192 94.027c10.639 13.168 31.254 33.18 44.059 42.77 32.968 24.688 75.017 42.329 114.737 48.136 28.736 4.201 50.784 4.226 78.651.089 52.913-7.855 103.324-33.304 141.785-71.577 39.255-39.063 64.924-92.023 72.665-149.918 1.989-14.875 2.255-45.788.52-60.5-6.711-56.928-30.648-107.229-70.605-148.372-40.602-41.807-89.669-66.45-150.516-75.597-12.779-1.921-41.401-2.74-53-1.515m-575 30.439c-35.065 5.769-64.671 30.6-77.104 64.668-5.168 14.16-6.364 21.658-6.359 39.877.003 12.18.481 18.725 1.827 25 2.544 11.859 8.766 27.309 14.99 37.222 2.897 4.615 48.931 69.566 102.298 144.334C494.019 683.325 615.666 853.85 710.979 987.5c95.312 133.65 174.585 244.642 176.161 246.648 1.577 2.006 3.755 5.606 4.841 8 1.952 4.302 1.975 7.769 1.997 300.378.015 199.197.363 298.798 1.065 304.5 3.239 26.327 11.965 45.087 28.881 62.088 32.236 32.399 84.113 40.798 125.649 20.341 28.527-14.049 50.093-44.08 54.547-75.955.976-6.99 1.383-76.149 1.819-309.686l.561-300.687 5-7.063c2.75-3.885 29.271-40.926 58.935-82.314 123.016-171.634 468.898-654.585 480.739-671.25 14.05-19.774 19.11-28.668 23.607-41.5 5.767-16.456 6.731-22.737 6.598-43-.109-16.496-.404-19.57-2.724-28.372-9.737-36.945-40.415-65.39-77.155-71.538-31.605-5.289-62.443 1.663-85.243 19.214-13.12 10.1-21.985 21.009-47.293 58.196-8.983 13.2-49.627 72.375-90.321 131.5-82.6 120.014-304.427 442.81-348.559 507.212-15.721 22.942-28.809 41.711-29.084 41.709-.275-.002-6.125-8.386-13-18.631-14.348-21.383-28.523-42.052-190.165-277.29-198.698-289.166-275.593-400.99-283.642-412.485-19.264-27.507-41.002-42.891-68.693-48.614-12.403-2.564-29.906-3.188-40.5-1.446m481.5 60.947c-25.604 8.119-43.559 35.173-50.517 76.117-2.734 16.088-3.022 40.826-.651 55.981 4.323 27.642 15.646 51.851 30.919 66.104 23.376 21.815 53.21 16.513 73.677-13.094 13.977-20.219 21.241-48.475 21.192-82.433-.062-43.353-15.48-80.669-40.12-97.108-9.325-6.221-24.643-8.692-34.5-5.567m199.5.941c-12.877 4.559-22.776 13.218-31.292 27.376-17.588 29.238-23.53 66.879-16.784 106.334 6.128 35.846 22.087 62.366 43.756 72.713 7.425 3.545 8.328 3.734 17.868 3.734 9.654 0 10.357-.152 17.895-3.876 19.875-9.819 35.551-34.613 42.629-67.425 3.08-14.279 3.788-43.876 1.445-60.414-3.883-27.411-12.968-48.745-27.165-63.795-3.557-3.771-8.692-8.283-11.412-10.028-11.04-7.085-25.032-8.834-36.94-4.619M270.806 501.25C195.695 610.88 146.266 736.909 126.573 869c-14.429 96.787-12.851 191.78 4.853 292.115 14.331 81.218 39.902 157.494 79.748 237.885 34.23 69.06 85.991 143.727 137.758 198.722 23.209 24.656 61.517 61.882 77.568 75.377 13.072 10.991 71.95 55.206 86.094 64.653 56.686 37.864 131.665 74.88 196.785 97.152 35.955 12.296 127.936 36.114 130.309 33.742.358-.359.125-6.613-.52-13.899-.862-9.748-1.171-89.724-1.169-302.791l.001-289.544-3.25-5.192c-1.788-2.855-32.089-45.585-67.336-94.955-35.247-49.371-65.397-91.632-67-93.913-1.603-2.282-4.536-6.107-6.518-8.5-1.983-2.394-80.937-112.802-175.454-245.352A1661603.282 1661603.282 0 0 0 319.825 536c-14.723-20.625-28.694-40.974-31.047-45.221-2.353-4.246-4.546-7.734-4.873-7.75-.327-.016-6.222 8.183-13.099 18.221m1441.05-7.5c-10.621 15.816-404.574 565.838-409.515 571.75-1.839 2.2-15.539 21.1-30.445 42-23.192 32.516-93.076 130.056-105.396 147.104l-4 5.536-.542 293.18c-.441 238.25-.796 295.198-1.898 303.949-.745 5.923-1.078 11.047-.738 11.386.725.725 6.693-.37 31.402-5.765 122.508-26.747 239.38-80.317 340.035-155.861 21.575-16.192 49.295-38.827 58.741-47.966 52.537-50.828 72.33-71.743 98.312-103.88 24.639-30.476 50.237-66.831 68.427-97.183 9.304-15.525 33.64-60.343 38.421-70.759 1.955-4.257 4.594-9.766 5.864-12.241 4.296-8.367 23.646-55.379 30.459-74 15.334-41.909 26.705-82.914 35.983-129.754 5.036-25.425 5.662-29.356 9.031-56.746 3.395-27.604 4.88-45.202 5.948-70.5.569-13.475 1.237-28.458 1.483-33.297 1.389-27.274-4.55-108.117-10.986-149.522-15.882-102.182-53.598-209.263-105.731-300.181-17.734-30.928-46.435-75-48.841-75-.445 0-3.151 3.488-6.014 7.75M1083.5 809.62c-33.68 9.68-60.529 13.136-93 11.969-28.96-1.041-44.256-3.483-73.266-11.699-9.496-2.69-17.713-4.89-18.26-4.89-1.194 0 19.668 31.321 62.28 93.5 31.549 46.037 38.375 55.562 40.246 56.163 1.145.368 97.745-139.779 102.605-148.859 1.328-2.481 1.252-2.467-20.605 3.816M.474 1000c0 39.325.124 55.412.276 35.75.151-19.663.151-51.837 0-71.5-.152-19.663-.276-3.575-.276 35.75" fill="#fff" fill-rule="evenodd"/>
</svg>
